<svg width="24" height="24" viewBox="0 0 24 24" fill="none" xmlns="http://www.w3.org/2000/svg">
<path fill-rule="evenodd" clip-rule="evenodd" d="M4.80259 20.3187C6.7317 21.9893 9.24781 23 12 23C18.0751 23 23 18.0751 23 12C23 9.24781 21.9893 6.7317 20.3187 4.80259L4.80259 20.3187ZM18.8779 3.41496C16.9943 1.90392 14.6027 1 12 1C5.92487 1 1 5.92487 1 12C1 14.6027 1.90392 16.9943 3.41496 18.8779L18.8779 3.41496Z" fill="#D27D2F"/>
<path d="M9.17342 20.4212C8.71919 20.7992 8.02652 20.5279 7.94998 19.9419L7.75965 18.4849C7.68574 17.9191 8.24564 17.4813 8.77693 17.6894L10.0967 18.2065C10.6279 18.4146 10.7414 19.1163 10.3028 19.4813L9.17342 20.4212Z" fill="#37220E"/>
<path d="M15.5108 15.7621C15.2746 15.3423 15.3711 14.8137 15.7406 14.5046L18.2808 12.3792C18.9987 11.7785 20.0745 12.4051 19.9063 13.3259L18.9905 18.3378C18.8223 19.2586 17.5944 19.4642 17.1353 18.6485L15.5108 15.7621Z" fill="#37220E"/>
<path d="M9.97272 2.03291C10.2735 1.88957 10.6277 2.07495 10.6813 2.40378L10.7868 3.05048C10.8531 3.45722 10.4266 3.76507 10.0615 3.57397L9.36447 3.20917C8.99935 3.01807 9.0092 2.49211 9.38122 2.31481L9.97272 2.03291Z" fill="#37220E"/>
<path d="M4.60922 10.2336C3.95353 10.2474 3.59729 9.47222 4.03473 8.98357L5.18691 7.69649C5.54711 7.29412 6.20168 7.39284 6.4272 7.88354L7.00209 9.13447C7.2276 9.62517 6.87623 10.1862 6.3363 10.1975L4.60922 10.2336Z" fill="#37220E"/>
</svg>
